<svg id="Capa_1" data-name="Capa 1" xmlns="http://www.w3.org/2000/svg" viewBox="0 0 28 12.53"><defs><style>.cls-1{fill:#1dbeb4;}</style></defs><title>sw</title><path class="cls-1" d="M20.55,6.67a2.65,2.65,0,1,0-2.33-2.94A2.65,2.65,0,0,0,20.55,6.67Z" transform="translate(0 -0.73)"/><path class="cls-1" d="M9,4.52l3.95-.79.85,1.36L10.71,8a5.91,5.91,0,0,1,1.36.53c.2.11.39.24.58.37a3.15,3.15,0,0,0,.85.47,2.28,2.28,0,0,0,.52.06,1.92,1.92,0,0,0,1.09-.34,6.79,6.79,0,0,1,3.42-1.27h.3a6.9,6.9,0,0,1,1.3.13c-.29-.45-5.37-6.62-5.37-6.62l-.14-.16A1.26,1.26,0,0,0,13.24.81L8.44,2.57A1,1,0,0,0,9,4.52Z" transform="translate(0 -0.73)"/><path class="cls-1" d="M26.44,10.65a4,4,0,0,1-1.68.41,4.08,4.08,0,0,1-.68-.06A4.14,4.14,0,0,1,22.16,10a5.87,5.87,0,0,0-1-.73,5.2,5.2,0,0,0-2.34-.53h-.27a5.81,5.81,0,0,0-3,1.13,3.08,3.08,0,0,1-1.63.48,3.35,3.35,0,0,1-.71-.1,4,4,0,0,1-1.1-.59,6,6,0,0,0-.51-.32,4.91,4.91,0,0,0-2.39-.61h0a4.87,4.87,0,0,0-3.1,1.06A5.94,5.94,0,0,1,3.91,11a2.43,2.43,0,0,1-.58.05,5,5,0,0,1-2-.53A3.87,3.87,0,0,0,0,10.19l.23.14a5.73,5.73,0,0,1,.85.77c.14.14.27.28.41.41a4.62,4.62,0,0,0,3,1.09,4.38,4.38,0,0,0,1.88-.43l.53-.28a4.94,4.94,0,0,1,.95-.47,3.62,3.62,0,0,1,1.11-.09,2.94,2.94,0,0,1,1.6.65,5.58,5.58,0,0,0,3.42,1.28H14a5.12,5.12,0,0,0,2.21-.47,5.27,5.27,0,0,0,.9-.58,3.61,3.61,0,0,1,1.95-.89h.14a3.47,3.47,0,0,1,1.68.42,5.64,5.64,0,0,0,2.73.85,3.55,3.55,0,0,0,.46,0,4.2,4.2,0,0,0,2.45-1.06c.14-.13.27-.26.41-.41a5.44,5.44,0,0,1,1-.86l.09-.05A4.79,4.79,0,0,0,26.44,10.65Z" transform="translate(0 -0.73)"/></svg>