<?xml version="1.0" standalone="no"?>
<!DOCTYPE svg PUBLIC "-//W3C//DTD SVG 1.0//EN" "http://www.w3.org/TR/2001/REC-SVG-20010904/DTD/svg10.dtd">
<svg xmlns="http://www.w3.org/2000/svg" xmlns:xlink="http://www.w3.org/1999/xlink" id="body_1" width="667" height="667">

<defs>
    <clipPath  id="1">

    <path id=""  clip-rule="evenodd" transform="matrix(1 0 0 1 0 0)"  d="M0 500L0 0L0 0L500 0L500 0L500 500L500 500L0 500z" />    </clipPath>
</defs>

<g transform="matrix(1.3333 0 0 1.3333 0 0)">
	<g clip-path="url(#1)" >
    <path id=""  transform="matrix(1 0 0 -1 0 500)"  d="M366.9643 255.80356C 392.91684 252.82532 416.37354 271.44012 419.3687 297.3907L419.3687 297.3907L419.3687 297.3907C 422.36392 323.34125 403.7644 346.81012 377.8158 349.82224L377.8158 349.82224L377.8158 349.82224C 351.86722 352.83435 328.3862 334.25018 325.35712 308.30356L325.35712 308.30356L325.35712 308.30356C 323.9 295.82184 327.46735 283.27313 335.27258 273.4245L335.27258 273.4245L335.27258 273.4245C 343.07776 263.57587 354.47977 257.23627 366.9643 255.80356" stroke="#FFFFFF" stroke-width="23.809525" fill="#1DBEB4" fill-rule="nonzero" />
    <path id=""  transform="matrix(1 0 0 -1 0 500)"  d="M160.7143 294.1964L160.7143 294.1964L160.7143 294.1964L231.25 308.30356L231.25 308.30356L246.42856 284.01785L246.42856 284.01785L191.25002 232.05356L191.25002 232.05356L191.25002 232.05356C 199.70517 229.91443 207.86269 226.7354 215.53572 222.58926L215.53572 222.58926L215.53572 222.58926C 219.10713 220.62498 222.49998 218.30356 225.89287 215.98213L225.89287 215.98213L225.89287 215.98213C 230.48805 212.41658 235.60843 209.58533 241.07144 207.58926L241.07144 207.58926L241.07144 207.58926C 244.11526 206.87682 247.23102 206.51732 250.35716 206.51784L250.35716 206.51784L250.35716 206.51784C 257.31082 206.521 264.09915 208.63846 269.82144 212.58926L269.82144 212.58926L269.82144 212.58926C 287.72855 225.57846 308.84808 233.4211 330.89288 235.26784L330.89288 235.26784L330.89288 235.26784L330.89288 235.26784L336.25003 235.26784L336.25003 235.26784L336.25003 235.26784C 344.04416 235.23 351.81708 234.45271 359.46432 232.94641L359.46432 232.94641L359.46432 232.94641C 354.28577 240.98213 263.57147 351.1607 263.57147 351.1607L263.57147 351.1607L261.07147 354.01785C 254.97705 361.05072 245.18188 363.60596 236.42859 360.4464L236.42859 360.4464L150.7143 329.01785C 141.09862 326.2564 135.54214 316.2228 138.30357 306.60712L138.30357 306.60712L138.30357 306.60712C 141.065 296.99146 151.09862 291.435 160.7143 294.1964" stroke="#FFFFFF" stroke-width="23.809525" fill="#1DBEB4" fill-rule="nonzero" />
    <path id=""  transform="matrix(1 0 0 -1 0 500)"  d="M472.14288 184.73213C 462.79636 180.13335 452.55713 177.63449 442.14285 177.41069L442.14285 177.41069L442.14285 177.41069C 438.07236 177.428 434.01062 177.7864 430 178.48213L430 178.48213L430 178.48213C 417.18994 181.28825 405.35678 187.45134 395.71426 196.33926L395.71426 196.33926L395.71426 196.33926C 390.23804 201.30188 384.2524 205.6714 377.85712 209.37498L377.85712 209.37498L377.85712 209.37498C 364.85672 215.74385 350.54727 218.98488 336.0714 218.83928L336.0714 218.83928L336.0714 218.83928L336.0714 218.83928L331.24997 218.83928L331.24997 218.83928L331.24997 218.83928C 311.85385 217.27016 293.28998 210.27777 277.67856 198.6607L277.67856 198.6607L277.67856 198.6607C 268.97183 193.1308 258.88556 190.1606 248.5714 190.08928L248.5714 190.08928L248.5714 190.08928C 244.29347 190.22922 240.04297 190.82788 235.89282 191.87498L235.89282 191.87498L235.89282 191.87498C 228.83423 194.33733 222.2059 197.89252 216.24997 202.4107L216.24997 202.4107L216.24997 202.4107C 213.3118 204.46669 210.2723 206.37381 207.14284 208.12498L207.14284 208.12498L207.14284 208.12498C 194.07532 215.3284 179.38559 219.07764 164.46426 219.01784L164.46426 219.01784L164.46426 219.01784L164.46426 219.01784L164.46426 219.01784L164.46426 219.01784L164.46426 219.01784C 144.37961 219.2907 124.81977 212.60248 109.107124 200.08926L109.107124 200.08926L109.107124 200.08926C 97.70107 190.1699 84.30665 182.80298 69.821434 178.48213L69.821434 178.48213L69.821434 178.48213C 66.417305 177.77055 62.939987 177.47075 59.46429 177.58926L59.46429 177.58926L59.46429 177.58926C 47.02986 178.21944 34.8647 181.44319 23.750006 187.05354L23.750006 187.05354L23.750006 187.05354C 16.246906 190.41496 8.204169 192.41054 0 192.94641L0 192.94641L4.107143 190.44641C 9.613752 186.38228 14.698807 181.7758 19.285717 176.69641L19.285717 176.69641L19.285717 176.69641C 21.785717 174.19643 24.107145 171.69641 26.607145 169.37498L26.607145 169.37498L26.607145 169.37498C 41.58475 156.72842 60.57611 149.82823 80.17857 149.9107L80.17857 149.9107L80.17857 149.9107C 91.80057 149.94421 103.26899 152.56732 113.75001 157.58928L113.75001 157.58928L123.214294 162.58928C 128.5517 165.98723 134.23918 168.80101 140.17859 170.98213L140.17859 170.98213L140.17859 170.98213C 146.66328 172.53702 153.3495 173.07915 160.00002 172.58928L160.00002 172.58928L160.00002 172.58928C 170.47105 171.66776 180.42436 167.62422 188.57144 160.98213L188.57144 160.98213L188.57144 160.98213C 205.7888 146.72908 227.29831 138.67876 249.64288 138.12498L249.64288 138.12498L249.64288 138.12498L249.64288 138.12498L250 138.12498L250 138.12498L250 138.12498C 263.61563 137.94894 277.09863 140.81638 289.4643 146.51785L289.4643 146.51785L289.4643 146.51785C 295.15918 149.41563 300.54413 152.88596 305.53574 156.875L305.53574 156.875L305.53574 156.875C 315.26614 165.57587 327.40863 171.11786 340.35715 172.76785L340.35715 172.76785L340.35715 172.76785L340.35715 172.76785L342.85715 172.76785L342.85715 172.76785L342.85715 172.76785C 353.3303 172.84337 363.6517 170.26305 372.85715 165.26785L372.85715 165.26785L372.85715 165.26785C 387.5336 156.10489 404.32315 150.8774 421.60718 150.0893L421.60718 150.0893L421.60718 150.0893C 424.34235 149.9117 427.0863 149.9117 429.82144 150.0893L429.82144 150.0893L429.82144 150.0893C 446.0752 151.47307 461.43466 158.11841 473.57144 169.01787L473.57144 169.01787L473.57144 169.01787C 476.0714 171.3393 478.39285 173.66072 480.89288 176.3393L480.89288 176.3393L480.89288 176.3393C 486.20038 182.16368 492.19678 187.32057 498.75003 191.69643L498.75003 191.69643L500.35715 192.5893C 490.57062 191.61182 481.02603 188.95383 472.14288 184.73213" stroke="#FFFFFF" stroke-width="23.809525" fill="#1DBEB4" fill-rule="nonzero" />
	</g>
</g>
</svg>